<svg width="32" height="32" viewBox="0 0 32 32" fill="none" xmlns="http://www.w3.org/2000/svg">
<g filter="url(#filter0_n_30_2)">
<mask id="path-2-outside-1_30_2" maskUnits="userSpaceOnUse" x="9" y="6" width="14" height="18" fill="black">
<rect fill="white" x="9" y="6" width="14" height="18"/>
<path d="M10.143 16.91V17.84H21.843V16.91C21.843 16.37 21.793 15.87 21.693 15.41C21.613 14.95 21.503 14.52 21.363 14.12L19.293 9.23C19.073 8.71 18.843 8.28 18.603 7.94C18.363 7.58 17.963 7.4 17.403 7.4H14.463C13.863 7.4 13.443 7.58 13.203 7.94C12.963 8.28 12.743 8.7 12.543 9.2L10.623 14.12C10.483 14.52 10.363 14.95 10.263 15.41C10.183 15.87 10.143 16.37 10.143 16.91ZM21.843 23.3V18.14H10.143V23.3H9.84297V16.91C9.84297 16.35 9.88297 15.84 9.96297 15.38C10.063 14.9 10.193 14.44 10.353 14L12.273 9.08C12.493 8.52 12.743 8.05 13.023 7.67C13.303 7.29 13.783 7.1 14.463 7.1H17.403C18.063 7.1 18.523 7.29 18.783 7.67C19.063 8.05 19.323 8.53 19.563 9.11L21.633 14C21.793 14.44 21.913 14.9 21.993 15.38C22.093 15.84 22.143 16.35 22.143 16.91V23.3H21.843Z"/>
</mask>
<path d="M10.143 16.91V17.84H21.843V16.91C21.843 16.37 21.793 15.87 21.693 15.41C21.613 14.95 21.503 14.52 21.363 14.12L19.293 9.23C19.073 8.71 18.843 8.28 18.603 7.94C18.363 7.58 17.963 7.4 17.403 7.4H14.463C13.863 7.4 13.443 7.58 13.203 7.94C12.963 8.28 12.743 8.7 12.543 9.2L10.623 14.12C10.483 14.52 10.363 14.95 10.263 15.41C10.183 15.87 10.143 16.37 10.143 16.91ZM21.843 23.3V18.14H10.143V23.3H9.84297V16.91C9.84297 16.35 9.88297 15.84 9.96297 15.38C10.063 14.9 10.193 14.44 10.353 14L12.273 9.08C12.493 8.52 12.743 8.05 13.023 7.67C13.303 7.29 13.783 7.1 14.463 7.1H17.403C18.063 7.1 18.523 7.29 18.783 7.67C19.063 8.05 19.323 8.53 19.563 9.11L21.633 14C21.793 14.44 21.913 14.9 21.993 15.38C22.093 15.84 22.143 16.35 22.143 16.91V23.3H21.843Z" fill="black" fill-opacity="0.2"/>
<path d="M10.143 17.84H9.64297V18.34H10.143V17.84ZM21.843 17.84V18.34H22.343V17.84H21.843ZM21.693 15.41L21.2004 15.4957L21.2022 15.506L21.2044 15.5162L21.693 15.41ZM21.363 14.12L21.8349 13.9548L21.8296 13.9398L21.8234 13.9251L21.363 14.12ZM19.293 9.23L18.8325 9.42482L18.8325 9.42491L19.293 9.23ZM18.603 7.94L18.1868 8.21745L18.1945 8.22834L18.603 7.94ZM13.203 7.94L13.6116 8.22844L13.619 8.21735L13.203 7.94ZM12.543 9.2L12.0787 9.0143L12.0772 9.01823L12.543 9.2ZM10.623 14.12L10.1572 13.9382L10.154 13.9465L10.151 13.9548L10.623 14.12ZM10.263 15.41L9.77438 15.3038L9.77216 15.314L9.77036 15.3243L10.263 15.41ZM21.843 23.3H21.343V23.8H21.843V23.3ZM21.843 18.14H22.343V17.64H21.843V18.14ZM10.143 18.14V17.64H9.64297V18.14H10.143ZM10.143 23.3V23.8H10.643V23.3H10.143ZM9.84297 23.3H9.34297V23.8H9.84297V23.3ZM9.96297 15.38L9.47348 15.278L9.47179 15.2861L9.47036 15.2943L9.96297 15.38ZM10.353 14L9.88705 13.8182L9.88307 13.8291L10.353 14ZM12.273 9.08L11.8076 8.89717L11.8072 8.89823L12.273 9.08ZM13.023 7.67L13.4255 7.9666V7.9666L13.023 7.67ZM18.783 7.67L18.3703 7.95234L18.3753 7.95956L18.3804 7.9666L18.783 7.67ZM19.563 9.11L19.1009 9.30118L19.1025 9.30491L19.563 9.11ZM21.633 14L22.1029 13.8291L22.0985 13.817L22.0934 13.8051L21.633 14ZM21.993 15.38L21.4998 15.4622L21.5018 15.4743L21.5044 15.4862L21.993 15.38ZM22.143 23.3V23.8H22.643V23.3H22.143ZM10.143 16.91H9.64297V17.84H10.143H10.643V16.91H10.143ZM10.143 17.84V18.34H21.843V17.84V17.34H10.143V17.84ZM21.843 17.84H22.343V16.91H21.843H21.343V17.84H21.843ZM21.843 16.91H22.343C22.343 16.3394 22.2902 15.8033 22.1816 15.3038L21.693 15.41L21.2044 15.5162C21.2958 15.9367 21.343 16.4006 21.343 16.91H21.843ZM21.693 15.41L22.1856 15.3243C22.1013 14.84 21.9848 14.3832 21.8349 13.9548L21.363 14.12L20.891 14.2852C21.0211 14.6568 21.1246 15.06 21.2004 15.4957L21.693 15.41ZM21.363 14.12L21.8234 13.9251L19.7534 9.03509L19.293 9.23L18.8325 9.42491L20.9025 14.3149L21.363 14.12ZM19.293 9.23L19.7535 9.03518C19.5241 8.49305 19.2779 8.02913 19.0115 7.65166L18.603 7.94L18.1945 8.22834C18.408 8.53087 18.6218 8.92694 18.8325 9.42482L19.293 9.23ZM18.603 7.94L19.019 7.66265C18.6594 7.12322 18.075 6.9 17.403 6.9V7.4V7.9C17.8509 7.9 18.0666 8.03678 18.1869 8.21735L18.603 7.94ZM17.403 7.4V6.9H14.463V7.4V7.9H17.403V7.4ZM14.463 7.4V6.9C13.7664 6.9 13.153 7.11359 12.7869 7.66265L13.203 7.94L13.619 8.21735C13.733 8.04641 13.9595 7.9 14.463 7.9V7.4ZM13.203 7.94L12.7945 7.65166C12.5265 8.03131 12.2892 8.48802 12.0787 9.01431L12.543 9.2L13.0072 9.38569C13.1967 8.91198 13.3994 8.52868 13.6115 8.22834L13.203 7.94ZM12.543 9.2L12.0772 9.01823L10.1572 13.9382L10.623 14.12L11.0888 14.3018L13.0088 9.38177L12.543 9.2ZM10.623 14.12L10.151 13.9548C10.0036 14.3761 9.87825 14.826 9.77438 15.3038L10.263 15.41L10.7516 15.5162C10.8477 15.074 10.9623 14.6639 11.0949 14.2852L10.623 14.12ZM10.263 15.41L9.77036 15.3243C9.68475 15.8166 9.64297 16.3456 9.64297 16.91H10.143H10.643C10.643 16.3944 10.6812 15.9234 10.7556 15.4957L10.263 15.41ZM21.843 23.3H22.343V18.14H21.843H21.343V23.3H21.843ZM21.843 18.14V17.64H10.143V18.14V18.64H21.843V18.14ZM10.143 18.14H9.64297V23.3H10.143H10.643V18.14H10.143ZM10.143 23.3V22.8H9.84297V23.3V23.8H10.143V23.3ZM9.84297 23.3H10.343V16.91H9.84297H9.34297V23.3H9.84297ZM9.84297 16.91H10.343C10.343 16.3732 10.3814 15.8925 10.4556 15.4657L9.96297 15.38L9.47036 15.2943C9.38459 15.7875 9.34297 16.3268 9.34297 16.91H9.84297ZM9.96297 15.38L10.4525 15.482C10.5478 15.0243 10.6714 14.5874 10.8229 14.1709L10.353 14L9.88307 13.8291C9.71453 14.2926 9.57813 14.7757 9.47348 15.278L9.96297 15.38ZM10.353 14L10.8188 14.1818L12.7388 9.26177L12.273 9.08L11.8072 8.89823L9.88718 13.8182L10.353 14ZM12.273 9.08L12.7383 9.26283C12.9466 8.73282 13.1772 8.30352 13.4255 7.9666L13.023 7.67L12.6204 7.3734C12.3087 7.79648 12.0394 8.30718 11.8076 8.89717L12.273 9.08ZM13.023 7.67L13.4255 7.9666C13.5746 7.76421 13.8679 7.6 14.463 7.6V7.1V6.6C13.6981 6.6 13.0313 6.81579 12.6204 7.3734L13.023 7.67ZM14.463 7.1V7.6H17.403V7.1V6.6H14.463V7.1ZM17.403 7.1V7.6C17.9747 7.6 18.2398 7.76157 18.3703 7.95234L18.783 7.67L19.1956 7.38766C18.8062 6.81843 18.1512 6.6 17.403 6.6V7.1ZM18.783 7.67L18.3804 7.9666C18.63 8.30532 18.8717 8.74713 19.101 9.30118L19.563 9.11L20.025 8.91882C19.7742 8.31287 19.4959 7.79467 19.1855 7.3734L18.783 7.67ZM19.563 9.11L19.1025 9.30491L21.1725 14.1949L21.633 14L22.0934 13.8051L20.0234 8.91509L19.563 9.11ZM21.633 14L21.1631 14.1709C21.3122 14.581 21.4246 15.0112 21.4998 15.4622L21.993 15.38L22.4862 15.2978C22.4013 14.7888 22.2737 14.299 22.1029 13.8291L21.633 14ZM21.993 15.38L21.5044 15.4862C21.5955 15.9055 21.643 16.3792 21.643 16.91H22.143H22.643C22.643 16.3208 22.5904 15.7745 22.4816 15.2738L21.993 15.38ZM22.143 16.91H21.643V23.3H22.143H22.643V16.91H22.143ZM22.143 23.3V22.8H21.843V23.3V23.8H22.143V23.3Z" fill="#3E7A4C" fill-opacity="0.82" mask="url(#path-2-outside-1_30_2)"/>
<mask id="path-4-outside-2_30_2" maskUnits="userSpaceOnUse" x="9" y="6" width="14" height="19" fill="black">
<rect fill="white" x="9" y="6" width="14" height="19"/>
<path d="M10.143 16.91V17.84H21.843V16.91C21.843 16.37 21.793 15.87 21.693 15.41C21.613 14.95 21.503 14.52 21.363 14.12L19.293 9.23C19.073 8.71 18.843 8.28 18.603 7.94C18.363 7.58 17.963 7.4 17.403 7.4H14.463C13.863 7.4 13.443 7.58 13.203 7.94C12.963 8.28 12.743 8.7 12.543 9.2L10.623 14.12C10.483 14.52 10.363 14.95 10.263 15.41C10.183 15.87 10.143 16.37 10.143 16.91ZM21.843 23.3V18.14H10.143V23.3H9.84297V16.91C9.84297 16.35 9.88297 15.84 9.96297 15.38C10.063 14.9 10.193 14.44 10.353 14L12.273 9.08C12.493 8.52 12.743 8.05 13.023 7.67C13.303 7.29 13.783 7.1 14.463 7.1H17.403C18.063 7.1 18.523 7.29 18.783 7.67C19.063 8.05 19.323 8.53 19.563 9.11L21.633 14C21.793 14.44 21.913 14.9 21.993 15.38C22.093 15.84 22.143 16.35 22.143 16.91V23.3H21.843Z"/>
</mask>
<path d="M10.143 16.91V17.84H21.843V16.91C21.843 16.37 21.793 15.87 21.693 15.41C21.613 14.95 21.503 14.52 21.363 14.12L19.293 9.23C19.073 8.71 18.843 8.28 18.603 7.94C18.363 7.58 17.963 7.4 17.403 7.4H14.463C13.863 7.4 13.443 7.58 13.203 7.94C12.963 8.28 12.743 8.7 12.543 9.2L10.623 14.12C10.483 14.52 10.363 14.95 10.263 15.41C10.183 15.87 10.143 16.37 10.143 16.91ZM21.843 23.3V18.14H10.143V23.3H9.84297V16.91C9.84297 16.35 9.88297 15.84 9.96297 15.38C10.063 14.9 10.193 14.44 10.353 14L12.273 9.08C12.493 8.52 12.743 8.05 13.023 7.67C13.303 7.29 13.783 7.1 14.463 7.1H17.403C18.063 7.1 18.523 7.29 18.783 7.67C19.063 8.05 19.323 8.53 19.563 9.11L21.633 14C21.793 14.44 21.913 14.9 21.993 15.38C22.093 15.84 22.143 16.35 22.143 16.91V23.3H21.843Z" fill="black" fill-opacity="0.2"/>
<path d="M10.143 17.84H9.39297V18.59H10.143V17.84ZM21.843 17.84V18.59H22.593V17.84H21.843ZM21.693 15.41L20.9541 15.5385L20.9568 15.554L20.9601 15.5693L21.693 15.41ZM21.363 14.12L22.0709 13.8722L22.063 13.8497L22.0536 13.8276L21.363 14.12ZM19.293 9.23L18.6022 9.52223L18.6023 9.52237L19.293 9.23ZM18.603 7.94L17.9789 8.35602L17.9845 8.36434L17.9902 8.37251L18.603 7.94ZM13.203 7.94L13.8157 8.37251L13.8215 8.36434L13.827 8.35602L13.203 7.94ZM12.543 9.2L11.8466 8.92145L11.8443 8.92734L12.543 9.2ZM10.623 14.12L9.92429 13.8473L9.91946 13.8597L9.91508 13.8722L10.623 14.12ZM10.263 15.41L9.53009 15.2507L9.52675 15.266L9.52406 15.2815L10.263 15.41ZM21.843 23.3H21.093V24.05H21.843V23.3ZM21.843 18.14H22.593V17.39H21.843V18.14ZM10.143 18.14V17.39H9.39297V18.14H10.143ZM10.143 23.3V24.05H10.893V23.3H10.143ZM9.84297 23.3H9.09297V24.05H9.84297V23.3ZM9.96297 15.38L9.22873 15.227L9.22619 15.2392L9.22406 15.2515L9.96297 15.38ZM10.353 14L9.65429 13.7273L9.65111 13.7355L9.64812 13.7437L10.353 14ZM12.273 9.08L11.5749 8.80576L11.5743 8.80734L12.273 9.08ZM13.023 7.67L13.6268 8.1149H13.6268L13.023 7.67ZM18.783 7.67L18.164 8.09351L18.1714 8.10434L18.1792 8.1149L18.783 7.67ZM19.563 9.11L18.8699 9.39677L18.8723 9.40237L19.563 9.11ZM21.633 14L22.3378 13.7437L22.3312 13.7255L22.3236 13.7076L21.633 14ZM21.993 15.38L21.2532 15.5033L21.2562 15.5214L21.2601 15.5393L21.993 15.38ZM22.143 23.3V24.05H22.893V23.3H22.143ZM10.143 16.91H9.39297V17.84H10.143H10.893V16.91H10.143ZM10.143 17.84V18.59H21.843V17.84V17.09H10.143V17.84ZM21.843 17.84H22.593V16.91H21.843H21.093V17.84H21.843ZM21.843 16.91H22.593C22.593 16.3241 22.5387 15.77 22.4259 15.2507L21.693 15.41L20.9601 15.5693C21.0472 15.97 21.093 16.4159 21.093 16.91H21.843ZM21.693 15.41L22.4319 15.2815C22.3455 14.785 22.2257 14.3148 22.0709 13.8722L21.363 14.12L20.6551 14.3678C20.7802 14.7252 20.8804 15.115 20.9541 15.5385L21.693 15.41ZM21.363 14.12L22.0536 13.8276L19.9836 8.93763L19.293 9.23L18.6023 9.52237L20.6723 14.4124L21.363 14.12ZM19.293 9.23L19.9837 8.93777C19.7497 8.38458 19.4954 7.90369 19.2157 7.50749L18.603 7.94L17.9902 8.37251C18.1906 8.6563 18.3963 9.03542 18.6022 9.52223L19.293 9.23ZM18.603 7.94L19.227 7.52397C18.8076 6.89483 18.1311 6.65 17.403 6.65V7.4V8.15C17.7949 8.15 17.9184 8.26517 17.9789 8.35602L18.603 7.94ZM17.403 7.4V6.65H14.463V7.4V8.15H17.403V7.4ZM14.463 7.4V6.65C13.7181 6.65 13.008 6.88038 12.5789 7.52397L13.203 7.94L13.827 8.35602C13.8779 8.27962 14.0078 8.15 14.463 8.15V7.4ZM13.203 7.94L12.5902 7.50749C12.3083 7.90697 12.0624 8.38203 11.8466 8.92146L12.543 9.2L13.2393 9.47854C13.4236 9.01797 13.6177 8.65303 13.8157 8.37251L13.203 7.94ZM12.543 9.2L11.8443 8.92734L9.92429 13.8473L10.623 14.12L11.3217 14.3927L13.2417 9.47266L12.543 9.2ZM10.623 14.12L9.91508 13.8722C9.76391 14.3041 9.6359 14.764 9.53009 15.2507L10.263 15.41L10.9959 15.5693C11.09 15.136 11.202 14.7359 11.3309 14.3678L10.623 14.12ZM10.263 15.41L9.52406 15.2815C9.43564 15.7899 9.39297 16.3334 9.39297 16.91H10.143H10.893C10.893 16.4066 10.9303 15.9501 11.0019 15.5385L10.263 15.41ZM21.843 23.3H22.593V18.14H21.843H21.093V23.3H21.843ZM21.843 18.14V17.39H10.143V18.14V18.89H21.843V18.14ZM10.143 18.14H9.39297V23.3H10.143H10.893V18.14H10.143ZM10.143 23.3V22.55H9.84297V23.3V24.05H10.143V23.3ZM9.84297 23.3H10.593V16.91H9.84297H9.09297V23.3H9.84297ZM9.84297 16.91H10.593C10.593 16.3849 10.6305 15.9187 10.7019 15.5085L9.96297 15.38L9.22406 15.2515C9.1354 15.7613 9.09297 16.3151 9.09297 16.91H9.84297ZM9.96297 15.38L10.6972 15.533C10.7902 15.0864 10.9106 14.6611 11.0578 14.2563L10.353 14L9.64812 13.7437C9.47531 14.2189 9.3357 14.7136 9.22873 15.227L9.96297 15.38ZM10.353 14L11.0517 14.2727L12.9717 9.35266L12.273 9.08L11.5743 8.80734L9.65429 13.7273L10.353 14ZM12.273 9.08L12.971 9.35424C13.1734 8.83923 13.3944 8.43028 13.6268 8.1149L13.023 7.67L12.4192 7.2251C12.0916 7.66972 11.8126 8.20077 11.5749 8.80576L12.273 9.08ZM13.023 7.67L13.6268 8.1149C13.7105 8.00131 13.9103 7.85 14.463 7.85V7.1V6.35C13.6556 6.35 12.8955 6.57869 12.4192 7.2251L13.023 7.67ZM14.463 7.1V7.85H17.403V7.1V6.35H14.463V7.1ZM17.403 7.1V7.85C17.9305 7.85 18.0982 7.99735 18.164 8.09351L18.783 7.67L19.402 7.24649C18.9477 6.58265 18.1954 6.35 17.403 6.35V7.1ZM18.783 7.67L18.1792 8.1149C18.4136 8.43299 18.6461 8.85569 18.87 9.39676L19.563 9.11L20.256 8.82323C19.9999 8.20431 19.7124 7.66701 19.3868 7.2251L18.783 7.67ZM19.563 9.11L18.8723 9.40237L20.9423 14.2924L21.633 14L22.3236 13.7076L20.2536 8.81763L19.563 9.11ZM21.633 14L20.9281 14.2563C21.0718 14.6515 21.1804 15.0668 21.2532 15.5033L21.993 15.38L22.7328 15.2567C22.6455 14.7332 22.5141 14.2285 22.3378 13.7437L21.633 14ZM21.993 15.38L21.2601 15.5393C21.3468 15.9382 21.393 16.3938 21.393 16.91H22.143H22.893C22.893 16.3062 22.8391 15.7418 22.7259 15.2207L21.993 15.38ZM22.143 16.91H21.393V23.3H22.143H22.893V16.91H22.143ZM22.143 23.3V22.55H21.843V23.3V24.05H22.143V23.3Z" fill="#3E7A4C" fill-opacity="0.82" mask="url(#path-4-outside-2_30_2)"/>
</g>
<defs>
<filter id="filter0_n_30_2" x="0" y="0" width="32" height="32" filterUnits="userSpaceOnUse" color-interpolation-filters="sRGB">
<feFlood flood-opacity="0" result="BackgroundImageFix"/>
<feBlend mode="normal" in="SourceGraphic" in2="BackgroundImageFix" result="shape"/>
<feTurbulence type="fractalNoise" baseFrequency="2 2" stitchTiles="stitch" numOctaves="3" result="noise" seed="8138" />
<feColorMatrix in="noise" type="luminanceToAlpha" result="alphaNoise" />
<feComponentTransfer in="alphaNoise" result="coloredNoise1">
<feFuncA type="discrete" tableValues="1 1 1 1 1 1 1 1 1 1 1 1 1 1 1 1 1 1 1 1 1 1 1 1 1 1 1 1 1 1 1 1 1 1 1 1 1 1 1 1 1 1 1 1 1 1 1 1 1 1 1 0 0 0 0 0 0 0 0 0 0 0 0 0 0 0 0 0 0 0 0 0 0 0 0 0 0 0 0 0 0 0 0 0 0 0 0 0 0 0 0 0 0 0 0 0 0 0 0 0 "/>
</feComponentTransfer>
<feComposite operator="in" in2="shape" in="coloredNoise1" result="noise1Clipped" />
<feFlood flood-color="rgba(0, 0, 0, 0.25)" result="color1Flood" />
<feComposite operator="in" in2="noise1Clipped" in="color1Flood" result="color1" />
<feMerge result="effect1_noise_30_2">
<feMergeNode in="shape" />
<feMergeNode in="color1" />
</feMerge>
</filter>
</defs>
</svg>
